<svg xmlns="http://www.w3.org/2000/svg" viewBox="0 0 343.1 152" width="343.1" height="152"><g transform="translate(40,40) scale(0.72)"><rect x="36" y="26" width="9" height="50" rx="4.5" fill="#FFFFFF"/><line x1="40.5" y1="34" x2="74" y2="25" stroke="#FFFFFF" stroke-width="9" stroke-linecap="round"/><line x1="40.5" y1="49" x2="64" y2="42" stroke="#FFFFFF" stroke-width="9" stroke-linecap="round"/><polygon points="82,13 74,26 90,26" fill="#18A87A"/></g><path d="M90.0 0V730H232.0V0ZM212.0 304V424L504.0 424.5V304.5ZM212.0 610V730H518.0V610ZM635.0 0V543H774.0V0ZM559.0 439V543H774.0V439ZM685.75 608.0Q645.0 608 625.5 629.25Q606.0 650.5 606.0 683.5Q606.0 716.5 625.5595238095239 737.75Q645.1190476190476 759.0 685.5 759.0Q726.5 759.0 745.75 737.75Q765.0 716.5 765.0 683.5Q765.0 650.5 745.75 629.25Q726.5 608.0 685.75 608.0ZM904.0 0V543H1014.0V310H1004.0Q1004.0 392.5 1025.75 448.0Q1047.5 503.5 1091.25 531.75Q1135.0 560 1199.5 560.0H1205.5Q1303.0 560 1353.0 497.25Q1403.0 434.5 1403.0 310.5V0H1264.0V323Q1264.0 373 1235.25 404.0Q1206.5 435.0 1156.5 435.0Q1105.5 435.0 1074.25 403.25Q1043.0 371.5 1043.0 319V0ZM1522.0 0V543H1632.0V313H1629.0Q1629.0 429.5 1679.0 489.75Q1729.0 550 1826.0 550H1846.0V429H1808.0Q1737.5 429.0 1699.25 391.25Q1661.0 353.5 1661.0 282.5V0ZM1935.0 0V543H2074.0V0ZM1859.0 439V543H2074.0V439ZM1985.75 608.0Q1945.0 608 1925.5 629.25Q1906.0 650.5 1906.0 683.5Q1906.0 716.5 1925.5595238095239 737.75Q1945.1190476190477 759.0 1985.5 759.0Q2026.5 759.0 2045.75 737.75Q2065.0 716.5 2065.0 683.5Q2065.0 650.5 2045.75 629.25Q2026.5 608.0 1985.75 608.0ZM2401.0 -17Q2288.5 -17.0 2225.25 30.25Q2162.0 77.5 2158.5 161.5H2283.5Q2286.5 133.5 2314.75 110.75Q2343.0 88 2403.0 88Q2452.5 88.0 2482.25 106.0Q2512.0 124 2512.0 154.5Q2512.0 181.5 2489.5 197.5Q2467.0 213.5 2412.5 219.0L2364.5 224.0Q2273.5 233.5 2224.5 275.75Q2175.5 318.0 2175.5 387.5Q2175.5 443.5 2203.5 481.5Q2231.5 519.5 2281.0 539.25Q2330.5 559.0 2394.5 559.0Q2495.0 559 2557.0 514.75Q2619.0 470.5 2622.0 385.5H2497.0Q2494.5 414.0 2468.75 434.0Q2443.0 454 2393.5 454.0Q2350.0 454 2325.75 437.0Q2301.5 420.0 2301.5 392.5Q2301.5 367.0 2321.0 353.0Q2340.5 339.0 2384.5 334.0L2432.5 329.0Q2528.5 319.0 2583.25 276.0Q2638.0 233 2638.0 159.5Q2638.0 106 2608.5 66.25Q2579.0 26.5 2525.75 4.75Q2472.5 -17.0 2401.0 -17ZM2966.0 -19Q2896.0 -19 2843.5 5.0Q2791.0 29 2756.5 69.25Q2722.0 109.5 2704.5 159.5Q2687.0 209.5 2687.0 262V281Q2687.0 335 2704.5 385.25Q2722.0 435.5 2756.25 475.25Q2790.5 515.0 2841.75 538.5Q2893.0 562 2960.0 562Q3048.0 562 3107.25 523.25Q3166.5 484.5 3196.75 422.25Q3227.0 360 3227.0 288V237.5H2746.0V322.5H3139.5L3097.0 281Q3097.0 333 3081.75 370.0Q3066.5 407.0 3036.25 427.0Q3006.0 447 2960.0 447Q2913.5 447.0 2881.5 425.75Q2849.5 404.5 2833.25 365.25Q2817.0 326 2817.0 271Q2817.0 219.5 2832.75 180.0Q2848.5 140.5 2881.5 118.25Q2914.5 96.0 2966.0 96Q3016.5 96.0 3048.5 116.5Q3080.5 137.0 3089.5 166.5H3217.5Q3206.0 111 3171.75 69.0Q3137.5 27.0 3085.25 4.0Q3033.0 -19 2966.0 -19Z" transform="translate(147.320,95.734) scale(0.05200,-0.05200)" fill="#FFFFFF"/></svg>